[img]http://img401.imageshack.us/img401/967/singbskaur001.jpg[/img]

[img]http://img267.imageshack.us/img267/4632/screensx.png[/img]

[img]http://img593.imageshack.us/img593/362/57324661.png[/img]
[img]http://img827.imageshack.us/img827/1497/92868933.png[/img]
[img]http://img507.imageshack.us/img507/3022/74289323.png[/img]
[img]http://img22.imageshack.us/img22/2299/98220625.png[/img]
[img]http://img841.imageshack.us/img841/6544/45170950.png[/img]
[img]http://img854.imageshack.us/img854/5992/28163751.png[/img]
[img]http://img560.imageshack.us/img560/6901/46107137.png[/img]
[img]http://img12.imageshack.us/img12/5079/75879139.png[/img]
[img]http://img198.imageshack.us/img198/6040/94784671.png[/img]
[img]http://img713.imageshack.us/img713/7705/38143282.png[/img]


Rip Information

Format                                   : Matroska 
Format version                           : Version 4 / Version 2 
File size                                : 1.36 GiB 
Duration                                 : 2h 29mn 
Overall bit rate                         : 1 308 Kbps 
Movie name                               : Singh vs Kaur (2013)-720p.DVDRip-x264.6Ch-Punjabi-[E-SUB]

Video

Format                                   : AVC
Format/Info                              : Advanced Video Codec
Format profile                           : High@L3.1
Format settings, CABAC                   : Yes
Format settings, ReFrames                : 5 frames
Codec ID                                 : V_MPEG4/ISO/AVC
Duration                                 : 2h 29mn
Bit rate                                 : 858 Kbps
Width                                    : 1 280 pixels
Height                                   : 544 pixels
Display aspect ratio                     : 2.35:1
Frame rate mode                          : Constant
Frame rate                               : 29.970 fps
Color space                              : YUV
Chroma subsampling                       : 4:2:0
Bit depth                                : 8 bits
Scan type                                : Progressive
Bits/(Pixel*Frame)                       : 0.041
Stream size                              : 891 MiB (64%)
Title                                    : ????
Writing library                          : x264 

Audio

Format                                   : AC-3
Format/Info                              : Audio Coding 3
Mode extension                           : CM (complete main)
Format settings, Endianness              : Big
Codec ID                                 : A_AC3
Duration                                 : 2h 29mn
Bit rate mode                            : Constant
Bit rate                                 : 448 Kbps
Channel(s)                               : 6 channels
Channel positions                        : Front: L C R, Side: L R, LFE
Sampling rate                            : 48.0 KHz
Bit depth                                : 16 bits
Compression mode                         : Lossy
Stream size                              : 478 MiB (34%)
Title                                    : ????
Language                                 : Panjabi
Default                                  : Yes

[img]http://i878.photobucket.com/albums/ab341/djrajiv/30m7gcojpg.gif[/img]
[img]http://i1227.photobucket.com/albums/ee432/djrajiv2009/48655751775352955506.gif[/img]
[img]http://img526.imageshack.us/img526/5956/hf7asze69mv.png[/img]
